<svg width="204" height="288" viewBox="0 0 204 288" fill="none" xmlns="http://www.w3.org/2000/svg">
<path d="M102.01 287.15L19.07 264.15L0.589996 56.85H203.68L185.18 264.12L102.01 287.15Z" fill="#264DE4"/>
<path d="M169.34 250.93L185.15 73.81H102.15V269.52L169.34 250.93Z" fill="#2965F1"/>
<path d="M43.01 150.66L45.29 176.08H102.19V150.66H43.01ZM38.43 99.2L40.74 124.62H102.18V99.2H38.38H38.43ZM102.18 216.69H102.07L73.75 209.04L71.94 188.76H46.37L49.93 228.68L102.01 243.17H102.13L102.18 216.69Z" fill="#EBEBEB"/>
<path d="M48.39 0.48999H79.18V13.37H61.26V26.25H79.18V39.13H48.39V0.48999ZM85.39 0.48999H116.18V11.69H98.22V13.93H116.14V39.69H85.34V27.93H103.26V25.69H85.34V0.48999H85.39ZM122.39 0.48999H153.18V11.69H135.17V13.93H153.09V39.69H122.29V27.93H140.21V25.69H122.29V0.48999H122.39Z" fill="black"/>
<path d="M161.15 150.66L165.74 99.2H102.01V124.62H137.84L135.53 150.62H102.01V176.04H133.32L130.32 209.04L102.01 216.71V243.16L154.13 228.71L154.51 224.41L160.51 157.47L161.13 150.64L161.15 150.66Z" fill="white"/>
</svg>
