<svg width="1102" height="776" viewBox="0 0 1102 776" fill="none" xmlns="http://www.w3.org/2000/svg">
<g id="Group 1">
<g id="Imagination 1" clip-path="url(#clip0)">
<path id="Vector" d="M606.503 462.114C467.293 552.699 571.701 449.174 385.405 537.909L338.32 523.12C283.045 443.011 200.748 287.231 313.753 304.978C426.759 322.725 437.268 226.102 428.396 175.571C405.877 158.933 372.303 64.2822 491.859 -70.3006C545.769 -51.814 627.384 -48.1167 678.155 -92.4846C728.926 -136.852 858.309 -109.123 948.386 -57.36C995.471 -109.123 1005.71 1.79714 1083.5 -27.7814C1171.06 -61.0731 1172.21 81.906 1155.15 120.111C1124.45 159.55 1078.59 249.519 1140.82 293.886C1203.06 338.254 1106.7 378.924 1054.84 390.017C1028.91 376.46 962.716 370.421 864.45 402.957C871.957 415.898 793.208 431.056 606.503 462.114Z" fill="url(#paint0_linear)"/>
<path id="Vector_2" d="M334.07 450.228C336.003 450.228 337.57 448.661 337.57 446.728C337.57 444.795 336.003 443.228 334.07 443.228C332.137 443.228 330.57 444.795 330.57 446.728C330.57 448.661 332.137 450.228 334.07 450.228Z" fill="white"/>
<path id="Vector_3" d="M469.628 340.382C472.997 340.382 475.728 338.408 475.728 335.973C475.728 333.538 472.997 331.564 469.628 331.564C466.26 331.564 463.529 333.538 463.529 335.973C463.529 338.408 466.26 340.382 469.628 340.382Z" fill="white"/>
<path id="Vector_4" d="M703.113 355.364C704.494 355.364 705.613 354.244 705.613 352.864C705.613 351.483 704.494 350.364 703.113 350.364C701.732 350.364 700.613 351.483 700.613 352.864C700.613 354.244 701.732 355.364 703.113 355.364Z" fill="white"/>
<path id="Vector_5" d="M563.735 138.455C567.877 138.455 571.235 135.097 571.235 130.955C571.235 126.812 567.877 123.455 563.735 123.455C559.593 123.455 556.235 126.812 556.235 130.955C556.235 135.097 559.593 138.455 563.735 138.455Z" fill="white"/>
<path id="Vector_6" d="M906.322 68.7818C909.69 68.7818 912.421 66.8078 912.421 64.3727C912.421 61.9376 909.69 59.9636 906.322 59.9636C902.954 59.9636 900.223 61.9376 900.223 64.3727C900.223 66.8078 902.954 68.7818 906.322 68.7818Z" fill="white"/>
<path id="Vector_7" d="M1077.2 214.873C1083.27 214.873 1088.2 209.948 1088.2 203.873C1088.2 197.798 1083.27 192.873 1077.2 192.873C1071.12 192.873 1066.2 197.798 1066.2 203.873C1066.2 209.948 1071.12 214.873 1077.2 214.873Z" fill="white"/>
<path id="Vector_8" d="M980.099 305.818C983.467 305.818 986.198 303.844 986.198 301.409C986.198 298.974 983.467 297 980.099 297C976.731 297 974 298.974 974 301.409C974 303.844 976.731 305.818 980.099 305.818Z" fill="white"/>
<path id="Vector_9" d="M790.5 169.018C791.881 169.018 793 167.899 793 166.518C793 165.137 791.881 164.018 790.5 164.018C789.119 164.018 788 165.137 788 166.518C788 167.899 789.119 169.018 790.5 169.018Z" fill="white"/>
<g id="Css3 1" clip-path="url(#clip1)">
<path id="Vector_10" d="M922.982 190.198L895.309 169.546L916.523 100.278L991.912 132.832L956.975 196.163L922.982 190.198Z" fill="#264DE4"/>
<path id="Vector_11" d="M952.881 189.405L982.736 135.287L951.926 121.982L925.422 184.581L952.881 189.405Z" fill="#2965F1"/>
<path id="Vector_12" d="M919.565 137.083L916.969 145.58L938.091 154.7L941.533 146.57L919.565 137.083ZM924.834 119.89L922.249 128.391L945.056 138.239L948.499 130.108L924.815 119.882L924.834 119.89ZM932.587 167.688L932.547 167.67L923.07 160.684L925.144 153.907L915.653 149.808L911.568 163.148L928.938 176.13L928.983 176.15L932.587 167.688Z" fill="#EBEBEB"/>
<path id="Vector_13" d="M941.899 89.9133L953.329 94.8487L951.584 98.9684L944.932 96.096L943.188 100.216L949.84 103.088L948.096 107.208L936.666 102.272L941.899 89.9133ZM955.634 95.8441L967.063 100.779L965.547 104.362L958.88 101.483L958.576 102.199L965.228 105.072L961.74 113.311L950.307 108.374L951.899 104.613L958.551 107.485L958.855 106.769L952.203 103.896L955.615 95.8361L955.634 95.8441ZM969.369 101.775L980.798 106.71L979.281 110.293L972.596 107.406L972.293 108.122L978.945 110.995L975.456 119.234L964.023 114.297L965.615 110.536L972.267 113.408L972.571 112.692L965.919 109.819L969.331 101.759L969.369 101.775Z" fill="black"/>
<path id="Vector_14" d="M963.42 156.02L972.093 140.296L948.435 130.081L944.993 138.212L958.293 143.955L953.915 151.901L941.472 146.528L938.029 154.659L949.652 159.677L944.069 169.752L932.522 167.667L928.94 176.127L950.244 179.86L950.967 178.545L962.26 158.096L963.415 156.011L963.42 156.02Z" fill="white"/>
</g>
<g id="Html5 1" clip-path="url(#clip2)">
<path id="Vector_15" opacity="0.1" d="M688.119 146.972L686.568 147.635L685.357 144.269L687.318 143.191C686.896 144.296 687.46 145.781 688.119 146.972Z" fill="black"/>
<path id="Vector_16" d="M719.364 73.6626L736.511 142.507L708.86 160.802L675.974 164.281L645.35 100.285L719.364 73.6626Z" fill="#E44D26"/>
<path id="Vector_17" d="M706.872 155.137L729.216 140.358L714.552 81.5279L684.308 92.4064L706.872 155.137Z" fill="#F16529"/>
<path id="Vector_18" d="M677.063 113.416L690.17 108.702L687.239 100.554L664.009 108.91L665.016 111.017L675.371 132.648L696.105 125.19L693.175 117.042L680.913 121.453L677.063 113.416ZM686.566 133.222L677.274 136.565L683.172 148.892L703.799 146.719L703.843 146.703L700.785 138.202L700.746 138.216L689.545 139.476L686.566 133.222Z" fill="#EBEBEB"/>
<path id="Vector_19" d="M645.745 79.7527L650.453 78.0593L651.924 82.1487L656.229 80.6001L654.758 76.5107L659.467 74.8173L663.923 87.2061L659.215 88.8996L657.723 84.7518L653.417 86.3004L654.909 90.4482L650.201 92.1416L645.745 79.7527ZM667.135 76.6995L662.989 78.1908L661.511 74.0819L674.511 69.4059L675.989 73.5147L671.843 75.0061L674.821 83.286L670.117 84.9779L667.139 76.6979L667.135 76.6995ZM676.577 68.6626L681.489 66.896L686.077 70.1629L687.529 64.7234L692.44 62.9568L696.897 75.3456L692.206 77.0327L689.998 70.8928L688.343 76.4624L688.263 76.491L683.436 73.2531L685.644 79.393L681.034 81.0515L676.577 68.6626ZM694.781 62.1148L699.489 60.4214L702.472 68.7131L709.109 66.3257L710.581 70.419L699.249 74.495L694.794 62.1101L694.781 62.1148Z" fill="black"/>
<path id="Vector_20" d="M696.07 125.203L707.477 121.1L710.203 132.054L700.753 138.222L703.808 146.716L721.138 135.253L720.78 133.826L715.241 111.592L714.681 109.325L693.145 117.071L696.076 125.218L696.07 125.203ZM690.132 108.693L690.139 108.713L712.519 100.663L712.046 98.7632L711.002 94.4718L710.437 92.2055L687.207 100.561L690.13 108.69L690.132 108.693Z" fill="white"/>
</g>
<g id="Js 1" clip-path="url(#clip3)">
<path id="Vector_21" d="M877.356 231L911.404 291.909L852.239 324.982L818.191 264.073L877.356 231Z" fill="#F7DF1E"/>
<path id="Vector_22" d="M836.867 274.657L842.213 277.786C841.168 279.552 840.314 281.102 841.411 283.065C842.462 284.946 843.84 285.732 846.619 284.178L865.525 273.61L868.724 279.333L849.742 289.945C843.984 293.163 839.422 291.157 836.586 286.084C834.027 281.506 834.846 277.561 836.871 274.658L836.867 274.657ZM848.779 294.562L854.005 297.756C852.744 300.071 852.21 302.462 853.787 305.284C855.113 307.656 857.109 308.524 858.698 307.635C860.605 306.57 860.411 304.64 860.064 301.404L859.86 299.641C859.258 294.558 859.871 290.619 864.399 288.088C868.57 285.756 873.575 287.251 876.432 292.361C878.466 295.999 878.693 299.299 876.532 302.982L871.261 300.082C872.421 298.145 872.501 296.706 871.587 295.069C870.65 293.394 869.023 292.906 867.672 293.661C866.003 294.594 865.923 296.033 866.264 299.062L866.468 300.826C867.162 306.817 866.63 310.717 861.982 313.315C856.978 316.112 851.974 313.597 848.933 308.155C845.957 302.832 846.515 298.024 848.79 294.566" fill="black"/>
</g>
<g id="react-2 1 1" clip-path="url(#clip4)">
<path id="Vector_23" d="M743.412 332.175C745.166 325.816 739.232 317.694 728.615 310.743C734.737 299.04 736.274 288.81 731.884 284.188C730.876 283.11 729.555 282.366 728.005 281.939L726.801 286.302C727.66 286.539 728.302 286.905 728.789 287.398C730.907 289.624 730.404 295.739 727.483 302.977C726.771 304.759 725.9 306.604 724.944 308.467C721.545 306.518 717.75 304.692 713.679 303.063C712.158 298.748 710.452 294.74 708.614 291.137C716.335 286.888 722.943 285.216 726.826 286.287L728.03 281.924C722.896 280.508 715.118 282.488 706.488 287.266C701.518 278.778 695.846 273.128 690.712 271.712L689.508 276.075C693.372 277.141 698.212 281.951 702.672 289.519C699.265 291.674 695.75 294.221 692.269 297.155C687.921 296.461 683.727 296.083 679.803 296.032C679.914 293.957 680.12 291.971 680.398 290.09C681.583 282.374 684.269 276.861 687.216 276.011C687.873 275.813 688.644 275.857 689.503 276.094L690.707 271.731C689.139 271.298 687.623 271.259 686.186 271.663C680.066 273.385 676.164 282.942 675.447 296.093C662.8 296.646 653.583 300.567 651.834 306.907C650.079 313.266 656.013 321.389 666.63 328.339C660.509 340.042 658.971 350.272 663.361 354.894C664.369 355.973 665.69 356.716 667.258 357.149C672.392 358.565 680.17 356.585 688.8 351.807C693.77 360.295 699.442 365.945 704.576 367.361C706.144 367.794 707.659 367.834 709.097 367.43C715.217 365.707 719.119 356.151 719.835 342.999C732.439 342.455 741.662 338.515 743.412 332.175ZM722.709 312.419C721.322 314.752 719.745 317.118 718.056 319.452C717.723 317.675 717.352 315.889 716.907 314.082C716.48 312.279 715.986 310.501 715.482 308.761C718.019 309.904 720.436 311.118 722.709 312.419ZM708.41 330.898C706.225 333.137 704.04 335.23 701.849 337.131C698.997 336.618 696.141 335.977 693.304 335.194C690.485 334.416 687.704 333.502 685.006 332.505C684.099 329.749 683.273 326.847 682.54 323.823C681.829 320.868 681.259 317.911 680.807 314.964C682.687 312.662 684.717 310.4 686.825 308.223C689.01 305.984 691.194 303.891 693.386 301.991C696.237 302.504 699.094 303.144 701.931 303.927C704.75 304.705 707.53 305.62 710.228 306.617C711.135 309.373 711.961 312.275 712.694 315.298C713.405 318.253 713.975 321.211 714.428 324.157C712.528 326.455 710.517 328.721 708.41 330.898ZM715.141 330.018C715.426 332.918 715.561 335.777 715.568 338.516C712.95 338.467 710.228 338.285 707.446 337.959C708.776 336.705 710.117 335.412 711.413 334.064C712.704 332.735 713.944 331.372 715.141 330.018ZM690.453 345.672C689.235 343.315 688.077 340.742 686.991 337.979C688.649 338.521 690.35 339.054 692.086 339.533C693.841 340.017 695.588 340.457 697.313 340.827C695.002 342.653 692.688 344.268 690.453 345.672ZM679.744 330.316C677.207 329.173 674.79 327.959 672.518 326.658C673.905 324.325 675.482 321.959 677.17 319.625C677.504 321.402 677.875 323.188 678.32 324.996C678.765 326.803 679.24 328.576 679.744 330.316ZM704.774 293.405C705.992 295.762 707.15 298.335 708.236 301.098C706.577 300.556 704.876 300.023 703.14 299.544C701.385 299.06 699.639 298.62 697.913 298.25C700.225 296.424 702.538 294.809 704.774 293.405ZM687.781 301.118C686.451 302.372 685.109 303.665 683.813 305.013C682.523 306.342 681.288 307.686 680.091 309.04C679.807 306.14 679.671 303.281 679.664 300.541C682.276 300.61 684.998 300.792 687.781 301.118ZM664.128 320.953C658.336 316.176 655.13 311.122 655.978 308.05C656.825 304.978 662.174 302.264 669.592 301.152C671.397 300.872 673.33 300.71 675.308 300.603C675.314 304.732 675.612 309.11 676.22 313.678C673.38 317.274 670.902 320.864 668.804 324.391C667.124 323.275 665.553 322.126 664.128 320.953ZM666.456 351.685C664.339 349.458 664.841 343.343 667.762 336.106C668.475 334.323 669.345 332.479 670.301 330.616C673.7 332.564 677.495 334.391 681.566 336.019C683.087 340.334 684.793 344.342 686.631 347.945C678.91 352.194 672.302 353.866 668.42 352.795C667.585 352.544 666.924 352.172 666.456 351.685ZM714.847 348.992C713.662 356.709 710.976 362.221 708.029 363.071C707.372 363.269 706.601 363.225 705.742 362.988C701.878 361.922 697.039 357.112 692.578 349.544C695.985 347.389 699.5 344.842 702.982 341.907C707.33 342.602 711.524 342.98 715.447 343.031C715.331 345.126 715.144 347.116 714.847 348.992ZM725.635 337.925C723.829 338.206 721.897 338.367 719.919 338.474C719.913 334.345 719.614 329.968 719.007 325.399C721.847 321.803 724.324 318.213 726.422 314.686C728.103 315.802 729.674 316.952 731.117 318.129C736.91 322.907 740.115 327.96 739.267 331.032C738.401 334.099 733.052 336.813 725.635 337.925Z" fill="#61DAFB"/>
<path id="Vector_24" d="M695.137 328.478C699.848 329.778 704.772 326.828 706.135 321.89C707.497 316.951 704.782 311.894 700.071 310.594C695.36 309.294 690.436 312.244 689.073 317.182C687.711 322.12 690.425 327.178 695.137 328.478Z" fill="#61DAFB"/>
</g>
<g id="node-js-logo 1 1" clip-path="url(#clip5)">
<path id="Vector_25" d="M513.27 350.993C512.531 350.803 511.845 350.428 511.29 349.902L505.526 344.314C504.657 343.512 505.199 343.445 505.56 343.419C507.021 343.309 507.32 343.277 508.957 342.858C509.129 342.813 509.319 342.893 509.451 343.021L513.876 347.32C514.039 347.466 514.304 347.534 514.503 347.481L537.613 341.395C537.826 341.341 538.002 341.162 538.057 340.947L543.827 318.422C543.885 318.198 543.815 317.966 543.652 317.805L526.321 301.369C526.161 301.213 525.913 301.149 525.699 301.209L502.603 307.288C502.379 307.345 502.201 307.524 502.146 307.738L496.375 330.263C496.32 330.477 496.389 330.714 496.555 330.866L501.302 335.373C503.937 337.594 506.213 336.355 506.654 334.635L512.349 312.404C512.431 312.086 512.751 311.908 513.08 311.993L515.642 312.649C515.961 312.731 516.162 313.042 516.08 313.36L510.382 335.601C509.391 339.47 506.634 341.133 502.832 340.159C501.663 339.859 500.742 339.623 498.483 337.743L493.934 333.433C493.382 332.904 492.98 332.247 492.768 331.527C492.556 330.807 492.541 330.048 492.725 329.327L498.496 306.803C498.871 305.338 500.032 304.177 501.528 303.79L524.66 297.704C526.12 297.334 527.821 297.77 528.913 298.794L546.242 315.251C546.795 315.778 547.196 316.434 547.41 317.154C547.622 317.873 547.636 318.631 547.453 319.351L541.682 341.875C541.308 343.336 540.143 344.49 538.649 344.889L515.542 350.98C514.802 351.175 514.018 351.175 513.271 350.982" fill="#689F63"/>
<path id="Vector_26" d="M523.494 337.072C514.645 334.805 513.794 330.41 514.636 327.121C514.717 326.808 515.041 326.626 515.366 326.709L517.978 327.379C518.267 327.453 518.458 327.718 518.433 328.004C518.169 330.674 519.012 332.271 524.363 333.642C528.626 334.734 530.676 334.269 531.235 332.088C531.556 330.832 531.279 329.766 524.818 327.445C519.415 325.498 516.294 323.444 517.39 319.169C518.399 315.23 522.442 313.767 528.208 315.244C534.683 316.903 537.337 319.895 536.547 324.66C536.533 324.74 536.503 324.816 536.458 324.884C536.413 324.951 536.353 325.009 536.282 325.052C536.212 325.096 536.134 325.125 536.051 325.138C535.967 325.15 535.883 325.146 535.803 325.125L533.175 324.452C532.901 324.382 532.712 324.135 532.721 323.867C532.779 321.003 531.472 319.746 527.316 318.681C522.664 317.49 521.722 318.914 521.421 320.087C521.057 321.509 521.589 322.087 527.661 324.497C533.672 326.886 536.336 328.766 535.256 332.982C534.167 337.233 529.868 338.73 523.458 337.088L523.494 337.072ZM554.211 319.511L554.889 319.685C555.446 319.828 555.649 319.479 555.706 319.259C555.853 318.682 555.444 318.578 555.216 318.519L554.517 318.34L554.211 319.511ZM553.859 317.453L555.363 317.838C555.879 317.97 556.891 318.23 556.606 319.344C556.407 320.121 555.849 320.15 555.516 320.169C556.107 320.362 556.051 320.753 555.995 321.312C555.948 321.659 555.866 322.257 555.937 322.484L555.01 322.246C555.036 322.045 555.168 320.933 555.183 320.875C555.184 320.62 555.129 320.481 554.819 320.401L554.054 320.205L553.621 321.896L552.776 321.679L553.859 317.453ZM551.514 319.091C551.065 320.84 552.165 322.632 553.962 323.092C555.776 323.557 557.609 322.485 558.05 320.766C558.499 319.012 557.372 317.239 555.575 316.778C553.804 316.325 551.963 317.316 551.51 319.085L551.514 319.091ZM558.675 320.936C558.144 323.008 555.955 324.248 553.812 323.699C551.687 323.155 550.343 321.03 550.879 318.939C551.424 316.808 553.654 315.641 555.74 316.175C557.842 316.713 559.215 318.809 558.67 320.935" fill="#689F63"/>
<path id="Vector_27" d="M554.242 263.525L501.429 219.697L455.071 272.473L507.882 316.302L554.242 263.525Z" fill="url(#paint1_linear)"/>
<path id="Vector_28" d="M457.275 247.643L485.508 313.947L551.882 288.307L523.645 222.003L457.275 247.643Z" fill="url(#paint2_linear)"/>
<path id="Vector_29" d="M488.845 235.91L475.397 288.399L521.81 300.29L535.258 247.801L488.845 235.91Z" fill="url(#paint3_linear)"/>
</g>
</g>
<g id="ComputerThinking 1">
<g id="undraw code thinking 1jeh 1">
<g id="Person">
<path id="Vector_30" d="M84.6838 723.527L57.596 722.068L66.6253 754.897L97.3245 744.684L84.6838 723.527Z" fill="#FFB9B9"/>
<path id="Vector 2" d="M332.99 662.246L269.785 612.638L233.667 635.254L162.336 704.559L170.462 714.773L257.143 667.353L315.834 729.363L371.816 706.748L332.99 662.246Z" fill="#2F2E41"/>
<path id="Vector 3" opacity="0.1" d="M332.99 662.246L269.785 612.638L233.667 635.254L162.336 704.559L170.462 714.773L257.143 667.353L315.834 729.363L371.816 706.748L332.99 662.246Z" fill="black"/>
<path id="Vector 4" d="M338.408 695.076L330.281 700.182L264.367 681.944L249.018 676.837L218.317 681.944C218.317 681.944 218.317 661.517 247.212 662.246L277.008 668.083L312.223 670.271L338.408 695.076Z" fill="#FFB9B9"/>
<path id="Vector 5" d="M397.099 749.061L377.234 759.275H353.757L244.503 726.445L84.6838 749.791L80.1686 722.068L226.444 670.272L354.661 704.559L397.099 749.061Z" fill="#2F2E41"/>
<path id="Vector 6" d="M268.882 619.204L255.338 621.393L252.387 618.61C250.05 616.408 248.569 613.698 248.131 610.818C247.692 607.939 248.315 605.019 249.92 602.425L287.844 562.3C287.844 562.3 298.679 542.603 315.834 550.628C332.99 558.653 301.387 571.784 301.387 571.784L282.426 595.859L284.232 608.261L268.882 619.204Z" fill="#FFB9B9"/>
<path id="Vector 7" d="M354.661 571.784C374.109 571.784 389.874 559.046 389.874 543.332C389.874 527.619 374.109 514.88 354.661 514.88C335.212 514.88 319.447 527.619 319.447 543.332C319.447 559.046 335.212 571.784 354.661 571.784Z" fill="#FFB9B9"/>
<path id="Vector 8" d="M338.86 564.124L355.112 595.494L393.938 582.362C393.938 582.362 381.297 557.559 381.297 556.829C381.297 556.099 338.86 564.124 338.86 564.124Z" fill="#FFB9B9"/>
<path id="Vector 9" d="M445.776 656.928C445.776 674.099 442.426 691.163 435.852 707.492L433.216 714.043L420.575 760.734L407.03 763.652L397.099 753.438L377.234 741.766L362.787 722.798L350.399 706.12L346.534 700.911L332.99 646.196L281.523 622.852L264.367 620.663L267.979 612.638L283.329 595.859L298.679 594.4L303.193 591.481L306.805 592.941L321.252 586.375L325.767 587.834L352.168 589.818L368.204 587.105L391.266 577.102L400.71 578.35L433.216 600.236C441.526 618.383 445.778 637.579 445.776 656.928Z" fill="#575A89"/>
<path id="Vector 10" d="M65.9106 734.823C65.9106 734.823 73.998 723.75 70.5821 722.456C67.1662 721.163 52.6594 716.009 52.6594 716.009L31.3854 710.312C31.3854 710.312 0.68831 673.452 0.0145054 705.507C-0.659301 737.562 22.3658 745.267 22.3658 745.267C22.3658 745.267 42.9013 780.974 54.5338 775.28C66.1662 769.587 77.8063 750.258 77.8063 750.258C77.8063 750.258 56.8293 741.147 65.9106 734.823Z" fill="#2F2E41"/>
<path id="Vector 11" opacity="0.1" d="M435.924 650.574L401.613 668.812L350.399 706.12L346.534 700.911L335.699 657.14H338.408L366.399 615.557L435.924 650.574Z" fill="black"/>
<path id="Vector 12" d="M366.399 611.179L338.408 652.762H328.476L322.156 667.353L307.709 670.272L346.534 704.559L401.613 664.435L435.924 646.196L366.399 611.179Z" fill="#575A89"/>
<path id="Vector 13" d="M327.271 522.177L323.455 523.364C322.868 523.043 322.367 522.63 321.98 522.15C321.593 521.67 321.328 521.133 321.202 520.57C321.075 520.006 321.088 519.428 321.242 518.869C321.395 518.31 321.684 517.782 322.094 517.314L315.043 517.047C319.569 512.177 325.324 508.139 331.926 505.2C338.529 502.261 345.828 500.487 353.342 499.998C360.856 499.509 368.412 500.315 375.511 502.361C382.611 504.408 389.092 507.65 394.526 511.872C394.847 510.978 398.346 512.716 399.775 514.478C400.255 513.024 403.536 520.051 404.696 525.018C405.234 523.364 407.299 526.034 405.489 528.596C406.636 528.46 407.154 530.831 406.266 532.152C407.52 531.676 407.31 534.505 405.949 536.396C407.74 536.267 391.831 556.216 385.391 567.873C383.52 560.931 381.417 553.62 375.387 548.448C374.362 547.569 373.239 546.768 372.118 545.969L366.058 541.645C359.009 536.619 352.597 530.415 343.208 528.536C336.755 527.245 332.676 526.953 336.192 521.079C333.015 522.15 330.048 523.743 326.842 524.738C326.886 523.917 327.333 522.998 327.271 522.177Z" fill="#2F2E41"/>
<path id="Vector 14" d="M372.268 551.722C375.758 551.722 378.588 549.435 378.588 546.615C378.588 543.795 375.758 541.509 372.268 541.509C368.777 541.509 365.947 543.795 365.947 546.615C365.947 549.435 368.777 551.722 372.268 551.722Z" fill="#FFB9B9"/>
</g>
<g id="Computer frame">
<path id="Vector 15" d="M1141.6 386.556H857.645V381.827H728.89V386.556H443.767C441.244 386.556 438.747 386.957 436.417 387.737C434.086 388.517 431.969 389.66 430.185 391.101C428.401 392.542 426.987 394.253 426.022 396.136C425.056 398.019 424.56 400.037 424.56 402.075V716.224C424.56 718.262 425.056 720.281 426.022 722.163C426.987 724.046 428.401 725.757 430.185 727.198C431.969 728.638 434.086 729.782 436.417 730.562C438.747 731.341 441.244 731.743 443.767 731.743H1141.6C1146.69 731.743 1151.57 730.108 1155.18 727.198C1158.79 724.288 1160.8 720.34 1160.8 716.224V402.075C1160.8 400.037 1160.3 398.019 1159.34 396.136C1158.38 394.253 1156.96 392.542 1155.18 391.101C1153.39 389.66 1151.28 388.517 1148.95 387.737C1146.62 386.957 1144.12 386.556 1141.6 386.556Z" fill="#3F3D56"/>
<path id="Vector 16" d="M1126.76 402.991H442.022V715.078H1126.76V402.991Z" fill="#58566B"/>
<path id="Vector 17" d="M797.827 397.534C801.706 397.534 804.85 394.993 804.85 391.86C804.85 388.726 801.706 386.185 797.827 386.185C793.948 386.185 790.804 388.726 790.804 391.86C790.804 394.993 793.948 397.534 797.827 397.534Z" fill="#6C63FF"/>
</g>
<g id="code lines">
<path id="Vector 18" d="M623.197 621.682H558.803V626.311H623.197V621.682Z" fill="#48ACF5"/>
<path id="Vector 19" d="M618.831 428.564H564.26V433.192H618.831V428.564Z" fill="#48ACF5"/>
<path id="Vector 20" d="M613.374 448.182V443.555H588.817H564.26V448.182H613.374Z" fill="#48ACF5"/>
<path id="Vector 21" opacity="0.85" d="M613.374 458.545H569.717V463.173H613.374V458.545Z" fill="#48ACF5"/>
<path id="Vector 22" d="M795.975 473.536H577.357V478.164H795.975V473.536Z" fill="#48ACF5"/>
<path id="Vector 23" d="M691.956 490.291H599.186V494.919H691.956V490.291Z" fill="#C180BC"/>
<path id="Vector 24" d="M671.219 509.691H627.562V514.319H671.219V509.691Z" fill="#C8B984"/>
<path id="Vector 25" d="M830.9 526.445H612.283V531.073H830.9V526.445Z" fill="#48ACF5"/>
<path id="Vector 26" d="M698.504 544.964H627.562V549.591H698.504V544.964Z" fill="#C180BC"/>
<path id="Vector 27" d="M743.252 565.245H612.283V569.873H743.252V565.245Z" fill="#C180BC"/>
<path id="Vector 28" d="M623.197 603.164H590.454V607.791H623.197V603.164Z" fill="#48ACF5"/>
<path id="Vector 29" d="M705.053 585.527H595.911V589.936H705.053V585.527Z" fill="#48ACF5"/>
</g>
<g id="Keyboard">
<path id="Vector 30" d="M1158.48 717.749H1091.65V713.858C1091.65 713.758 1091.62 713.657 1091.58 713.564C1091.53 713.47 1091.46 713.385 1091.37 713.313C1091.28 713.242 1091.18 713.185 1091.06 713.146C1090.94 713.107 1090.82 713.088 1090.69 713.088H1067.78C1067.66 713.088 1067.53 713.107 1067.42 713.146C1067.3 713.185 1067.2 713.242 1067.11 713.313C1067.02 713.385 1066.95 713.47 1066.9 713.564C1066.85 713.657 1066.83 713.758 1066.83 713.858V717.749H1052.51V713.858C1052.51 713.758 1052.48 713.657 1052.44 713.564C1052.39 713.47 1052.32 713.385 1052.23 713.313C1052.14 713.242 1052.03 713.185 1051.92 713.146C1051.8 713.107 1051.68 713.088 1051.55 713.088H1028.64C1028.52 713.088 1028.39 713.107 1028.28 713.146C1028.16 713.185 1028.06 713.242 1027.97 713.313C1027.88 713.385 1027.81 713.47 1027.76 713.564C1027.71 713.657 1027.69 713.758 1027.69 713.858V717.749H1013.37V713.858C1013.37 713.758 1013.34 713.657 1013.29 713.564C1013.25 713.47 1013.18 713.385 1013.09 713.313C1013 713.242 1012.89 713.185 1012.78 713.146C1012.66 713.107 1012.54 713.088 1012.41 713.088H989.5C989.374 713.088 989.251 713.107 989.135 713.146C989.019 713.185 988.914 713.242 988.825 713.313C988.737 713.385 988.666 713.47 988.618 713.564C988.57 713.657 988.546 713.758 988.546 713.858V717.749H974.226V713.858C974.226 713.758 974.202 713.657 974.154 713.564C974.106 713.47 974.035 713.385 973.946 713.313C973.858 713.242 973.752 713.185 973.636 713.146C973.521 713.107 973.396 713.088 973.271 713.088H950.36C950.234 713.088 950.11 713.107 949.994 713.146C949.878 713.185 949.772 713.242 949.684 713.313C949.596 713.385 949.525 713.47 949.477 713.564C949.429 713.657 949.405 713.758 949.405 713.858V717.749H935.084V713.858C935.084 713.758 935.06 713.657 935.012 713.564C934.964 713.47 934.893 713.385 934.805 713.313C934.716 713.242 934.611 713.185 934.495 713.146C934.379 713.107 934.255 713.088 934.13 713.088H911.218C911.093 713.088 910.968 713.107 910.853 713.146C910.737 713.185 910.631 713.242 910.543 713.313C910.454 713.385 910.383 713.47 910.336 713.564C910.288 713.657 910.263 713.758 910.263 713.858V717.749H895.943V713.858C895.943 713.758 895.919 713.657 895.871 713.564C895.823 713.47 895.752 713.385 895.664 713.313C895.575 713.242 895.47 713.185 895.354 713.146C895.238 713.107 895.115 713.088 894.989 713.088H872.077C871.951 713.088 871.827 713.107 871.711 713.146C871.596 713.185 871.49 713.242 871.401 713.313C871.313 713.385 871.243 713.47 871.195 713.564C871.147 713.657 871.122 713.758 871.122 713.858V717.749H856.803V713.858C856.803 713.758 856.778 713.657 856.73 713.564C856.682 713.47 856.612 713.385 856.522 713.313C856.434 713.242 856.329 713.185 856.213 713.146C856.097 713.107 855.973 713.088 855.848 713.088H676.37C676.245 713.088 676.121 713.107 676.006 713.146C675.889 713.185 675.784 713.242 675.696 713.313C675.607 713.385 675.536 713.47 675.488 713.564C675.44 713.657 675.416 713.758 675.416 713.858V717.749H661.096V713.858C661.096 713.758 661.071 713.657 661.023 713.564C660.976 713.47 660.905 713.385 660.817 713.313C660.728 713.242 660.622 713.185 660.507 713.146C660.391 713.107 660.266 713.088 660.141 713.088H637.23C637.105 713.088 636.98 713.107 636.864 713.146C636.749 713.185 636.643 713.242 636.554 713.313C636.466 713.385 636.395 713.47 636.347 713.564C636.299 713.657 636.275 713.758 636.275 713.858V717.749H621.955V713.858C621.955 713.758 621.931 713.657 621.883 713.564C621.835 713.47 621.764 713.385 621.675 713.313C621.587 713.242 621.481 713.185 621.365 713.146C621.25 713.107 621.125 713.088 621 713.088H598.089C597.963 713.088 597.839 713.107 597.723 713.146C597.607 713.185 597.502 713.242 597.413 713.313C597.325 713.385 597.254 713.47 597.206 713.564C597.158 713.657 597.134 713.758 597.134 713.858V717.749H582.813V713.858C582.813 713.758 582.789 713.657 582.741 713.564C582.693 713.47 582.622 713.385 582.534 713.313C582.445 713.242 582.34 713.185 582.224 713.146C582.108 713.107 581.984 713.088 581.859 713.088H558.947C558.822 713.088 558.697 713.107 558.582 713.146C558.466 713.185 558.36 713.242 558.272 713.313C558.183 713.385 558.114 713.47 558.066 713.564C558.018 713.657 557.992 713.758 557.992 713.858V717.749H543.672V713.858C543.672 713.758 543.648 713.657 543.6 713.564C543.552 713.47 543.481 713.385 543.393 713.313C543.304 713.242 543.199 713.185 543.083 713.146C542.967 713.107 542.844 713.088 542.718 713.088H519.806C519.681 713.088 519.556 713.107 519.44 713.146C519.325 713.185 519.22 713.242 519.13 713.313C519.042 713.385 518.972 713.47 518.924 713.564C518.876 713.657 518.851 713.758 518.851 713.858V717.749H504.532V713.858C504.532 713.758 504.507 713.657 504.459 713.564C504.411 713.47 504.341 713.385 504.251 713.313C504.163 713.242 504.058 713.185 503.942 713.146C503.826 713.107 503.702 713.088 503.577 713.088H480.665C480.539 713.088 480.415 713.107 480.299 713.146C480.183 713.185 480.079 713.242 479.989 713.313C479.901 713.385 479.831 713.47 479.783 713.564C479.735 713.657 479.71 713.758 479.71 713.858V717.749H465.39V713.858C465.39 713.758 465.365 713.657 465.317 713.564C465.269 713.47 465.199 713.385 465.11 713.313C465.021 713.242 464.917 713.185 464.801 713.146C464.685 713.107 464.561 713.088 464.435 713.088H441.523C441.398 713.088 441.273 713.107 441.158 713.146C441.042 713.185 440.937 713.242 440.849 713.313C440.759 713.385 440.69 713.47 440.642 713.564C440.593 713.657 440.568 713.758 440.568 713.858V717.749H396.654C390.577 717.749 384.75 719.699 380.453 723.171C376.157 726.643 373.742 731.351 373.742 736.261V744.631C373.742 749.541 376.157 754.25 380.453 757.722C384.75 761.193 390.577 763.143 396.654 763.143H1158.48C1164.55 763.143 1170.38 761.193 1174.68 757.722C1178.98 754.25 1181.39 749.541 1181.39 744.631V736.261C1181.39 731.351 1178.98 726.643 1174.68 723.171C1170.38 719.699 1164.55 717.749 1158.48 717.749Z" fill="#3F3D56"/>
</g>
<g id="MenuLines">
<path id="Rectangle 1" d="M552.255 402.991H434.382V715.155H552.255V402.991Z" fill="#2F2E41"/>
<path id="Line 1" d="M445.291 484.559H499.873" stroke="white" stroke-width="6"/>
<path id="Line 2" d="M467.119 466.041H521.701" stroke="white" stroke-width="6"/>
<path id="Line 3" d="M455.114 446.641H509.695" stroke="white" stroke-width="6"/>
<path id="Line 4" d="M445.291 429.005H499.873" stroke="white" stroke-width="6"/>
<path id="Vector 31" opacity="0.1" d="M917.674 723.423H428.756V411.336L917.674 723.423Z" fill="black"/>
</g>
</g>
</g>
</g>
<defs>
<linearGradient id="paint0_linear" x1="1128.54" y1="-70.3006" x2="427.584" y2="608.905" gradientUnits="userSpaceOnUse">
<stop stop-color="#9A36B3"/>
<stop offset="1" stop-color="#5E36B3"/>
</linearGradient>
<linearGradient id="paint1_linear" x1="527.829" y1="241.562" x2="482.989" y2="295.591" gradientUnits="userSpaceOnUse">
<stop offset="0.3" stop-color="#3E863D"/>
<stop offset="0.5" stop-color="#55934F"/>
<stop offset="0.8" stop-color="#5AAD45"/>
</linearGradient>
<linearGradient id="paint2_linear" x1="471.564" y1="281.178" x2="536.996" y2="253.315" gradientUnits="userSpaceOnUse">
<stop offset="0.57" stop-color="#3E863D"/>
<stop offset="0.72" stop-color="#619857"/>
<stop offset="1" stop-color="#76AC64"/>
</linearGradient>
<linearGradient id="paint3_linear" x1="482.136" y1="262.16" x2="528.542" y2="274.049" gradientUnits="userSpaceOnUse">
<stop offset="0.16" stop-color="#6BBF47"/>
<stop offset="0.38" stop-color="#79B461"/>
<stop offset="0.47" stop-color="#75AC64"/>
<stop offset="0.7" stop-color="#659E5A"/>
<stop offset="0.9" stop-color="#3E863D"/>
</linearGradient>
<clipPath id="clip0">
<rect width="977.071" height="564.364" fill="white" transform="translate(204.929)"/>
</clipPath>
<clipPath id="clip1">
<rect width="82.4852" height="100.035" fill="white" transform="matrix(0.918065 0.39643 -0.389891 0.920861 924.003 82)"/>
</clipPath>
<clipPath id="clip2">
<rect width="79" height="98" fill="white" transform="translate(638.747 82.2613) rotate(-19.7833)"/>
</clipPath>
<clipPath id="clip3">
<rect width="70" height="68" fill="white" transform="translate(877.356 231) rotate(60.7949)"/>
</clipPath>
<clipPath id="clip4">
<rect width="95" height="89" fill="white" transform="translate(663.673 264) rotate(15.4256)"/>
</clipPath>
<clipPath id="clip5">
<rect width="175.92" height="144.861" fill="white" transform="translate(443.735 193.129) rotate(14.37)"/>
</clipPath>
</defs>
</svg>
