<svg width="168" height="237" viewBox="0 0 168 237" fill="none" xmlns="http://www.w3.org/2000/svg">
<path opacity="0.1" d="M52.22 187.67L48.64 187.91V179.26L53.34 178.41C51.7 180.58 51.76 184.42 52.22 187.67Z" fill="black"/>
<path d="M167.51 46.42L152.27 217.12L83.77 236.12L15.46 217.12L0.23999 46.42H167.51Z" fill="#E44D26"/>
<path d="M83.87 221.6L139.22 206.26L152.22 60.38H83.87V221.6Z" fill="#F16529"/>
<path d="M54.25 102.26H83.87V81.32H31.37L31.87 86.94L37.02 144.64H83.88V123.7H56.17L54.25 102.26ZM59.01 155.11H38.01L40.94 187.99L83.78 199.93H83.88V178.08H83.79L60.47 171.78L59.01 155.11Z" fill="#EBEBEB"/>
<path d="M15.81 0.019989H26.45V10.53H36.18V0.019989H46.82V31.86H36.18V21.2H26.45V31.86H15.81V0.019989ZM60.81 10.58H51.44V0.019989H80.82V10.58H71.45V31.86H60.82V10.58H60.81ZM85.49 0.019989H96.59L103.42 11.21L110.24 0.019989H121.34V31.86H110.74V16.08L103.42 27.4H103.24L95.91 16.08V31.86H85.49V0.019989ZM126.63 0.019989H137.27V21.33H152.27V31.85H126.66V0.019989H126.63Z" fill="black"/>
<path d="M83.8 144.64H109.58L107.15 171.8L83.8 178.1V199.93L126.73 188.03L127.04 184.49L131.96 129.36L132.47 123.74H83.8V144.68V144.64ZM83.8 102.21V102.26H134.38L134.8 97.55L135.8 86.93L136.3 81.31H83.8V102.2V102.21Z" fill="white"/>
</svg>
