<svg width="801" height="640" viewBox="0 0 801 640" fill="none" xmlns="http://www.w3.org/2000/svg">
<path d="M319.463 558.038C192.546 655.002 287.734 544.186 117.889 639.171L74.9616 623.34C24.5681 537.59 -50.462 370.838 52.5645 389.835C155.591 408.832 165.172 305.404 157.084 251.315C136.553 233.505 105.944 132.188 214.943 -11.8731C264.092 7.91544 338.5 11.8732 384.788 -35.6194C431.075 -83.112 549.033 -53.4292 631.156 1.97886C674.083 -53.4292 683.415 65.3023 754.339 33.6406C834.167 -1.99571 835.218 151.053 819.664 191.949C791.668 234.165 749.86 330.47 806.599 377.962C863.339 425.455 775.492 468.989 728.209 480.863C704.568 466.351 644.22 459.887 554.632 494.715C561.476 508.567 489.681 524.793 319.463 558.038Z" fill="url(#paint0_linear)" stroke="#2F2E41"/>
<ellipse cx="108" cy="507.577" rx="5" ry="4.94717" fill="white"/>
<circle cx="217" cy="381" r="5" fill="white"/>
<circle cx="413" cy="425" r="5" fill="white"/>
<circle cx="293" cy="145" r="5" fill="white"/>
<circle cx="575" cy="73" r="5" fill="white"/>
<circle cx="725" cy="243" r="5" fill="white"/>
<circle cx="791" cy="135" r="5" fill="white"/>
<circle cx="483" cy="191" r="5" fill="white"/>
<defs>
<linearGradient id="paint0_linear" x1="795.401" y1="-11.8731" x2="58.338" y2="596.413" gradientUnits="userSpaceOnUse">
<stop stop-color="#9A36B3"/>
<stop offset="1" stop-color="#5E36B3"/>
</linearGradient>
</defs>
</svg>
