<svg width="1903" height="1153" viewBox="0 0 1903 1153" fill="none" xmlns="http://www.w3.org/2000/svg">
<path d="M943.661 827.318C939.15 827.318 934.669 826.147 930.714 823.893L889.5 799.753C883.345 796.347 886.348 795.143 888.379 794.449C896.586 791.605 898.252 790.963 907.012 786.041C907.933 785.521 909.138 785.705 910.081 786.255L941.742 804.844C942.886 805.455 944.508 805.455 945.568 804.844L1069.02 734.343C1070.16 733.701 1070.9 732.386 1070.9 731.041V590.1C1070.9 588.694 1070.16 587.44 1068.99 586.737L945.593 516.298C944.449 515.625 942.935 515.625 941.792 516.298L818.414 586.737C817.219 587.41 816.458 588.725 816.458 590.07V731.01C816.458 732.355 817.2 733.639 818.374 734.282L852.18 753.604C870.536 762.684 881.753 751.983 881.753 741.222V602.115C881.753 600.128 883.329 598.6 885.338 598.6H900.974C902.921 598.6 904.528 600.128 904.528 602.115V741.283C904.528 765.496 891.178 779.407 867.971 779.407C860.833 779.407 855.209 779.407 839.511 771.764L807.126 753.298C803.189 751.025 799.922 747.771 797.65 743.861C795.378 739.951 794.182 735.52 794.178 731.01V590.07C794.178 580.898 799.123 572.338 807.126 567.813L930.701 497.281C938.519 492.909 948.902 492.909 956.658 497.281L1080.08 567.843C1084.02 570.109 1087.28 573.357 1089.56 577.262C1091.83 581.168 1093.02 585.594 1093.03 590.1V731.041C1093.03 740.182 1088.05 748.712 1080.08 753.298L956.658 823.829C952.702 826.083 948.214 827.264 943.649 827.253" fill="#689F63"/>
<path d="M981.794 730.2C927.778 730.2 916.453 705.669 916.453 685.093C916.453 683.136 918.047 681.577 920.028 681.577H935.973C937.735 681.577 939.218 682.846 939.496 684.567C941.906 700.642 949.075 708.75 981.738 708.75C1007.76 708.75 1018.82 702.935 1018.82 689.285C1018.82 681.427 1015.67 675.588 975.249 671.675C941.443 668.373 920.553 661.005 920.553 634.254C920.553 609.612 941.566 594.937 976.763 594.937C1016.29 594.937 1035.88 608.511 1038.35 637.678C1038.39 638.168 1038.33 638.662 1038.17 639.127C1038.01 639.592 1037.75 640.02 1037.41 640.382C1037.07 640.744 1036.67 641.033 1036.21 641.23C1035.75 641.428 1035.26 641.53 1034.77 641.53H1018.73C1017.06 641.53 1015.61 640.368 1015.27 638.778C1011.4 621.872 1002.07 616.46 976.701 616.46C948.303 616.46 944.996 626.244 944.996 633.581C944.996 642.478 948.89 645.076 987.208 650.09C1025.15 655.074 1043.17 662.105 1043.17 688.49C1043.17 715.088 1020.74 730.344 981.615 730.344L981.794 730.2ZM1131.98 580.874H1136.12C1139.52 580.874 1140.17 578.519 1140.17 577.144C1140.17 573.536 1137.67 573.536 1136.28 573.536H1132.01L1131.98 580.874ZM1126.94 569.317H1136.12C1139.27 569.317 1145.45 569.317 1145.45 576.288C1145.45 581.149 1142.3 582.158 1140.42 582.769C1144.09 583.014 1144.34 585.398 1144.84 588.761C1145.08 590.871 1145.49 594.509 1146.23 595.732H1140.57C1140.42 594.509 1139.55 587.783 1139.55 587.416C1139.18 585.918 1138.66 585.184 1136.77 585.184H1132.1V595.762H1126.94V569.317ZM1115.91 582.463C1115.91 593.408 1124.84 602.274 1135.81 602.274C1146.88 602.274 1155.81 593.225 1155.81 582.463C1155.81 571.488 1146.75 562.774 1135.78 562.774C1124.97 562.774 1115.88 571.365 1115.88 582.433L1115.91 582.463ZM1159.64 582.524C1159.64 595.487 1148.92 606.066 1135.84 606.066C1122.87 606.066 1112.05 595.61 1112.05 582.524C1112.05 569.195 1123.11 558.983 1135.84 558.983C1148.67 558.983 1159.61 569.225 1159.61 582.524" fill="#689F63"/>
<path d="M1049.99 252.082L683.146 74.1787L495.049 453.813L861.887 631.725L1049.99 252.082Z" fill="url(#paint0_linear)"/>
<path d="M471.23 304.7L730.262 651.558L1072.84 401.148L813.788 54.3002L471.23 304.7Z" fill="url(#paint1_linear)"/>
<path d="M634.853 188.31V516.753H918.168V188.31H634.853Z" fill="url(#paint2_linear)"/>
<defs>
<linearGradient id="paint0_linear" x1="866.459" y1="162.85" x2="681.597" y2="544.022" gradientUnits="userSpaceOnUse">
<stop offset="0.3" stop-color="#3E863D"/>
<stop offset="0.5" stop-color="#55934F"/>
<stop offset="0.8" stop-color="#5AAD45"/>
</linearGradient>
<linearGradient id="paint1_linear" x1="602.298" y1="480.117" x2="942.29" y2="226.203" gradientUnits="userSpaceOnUse">
<stop offset="0.57" stop-color="#3E863D"/>
<stop offset="0.72" stop-color="#619857"/>
<stop offset="1" stop-color="#76AC64"/>
</linearGradient>
<linearGradient id="paint2_linear" x1="634.949" y1="352.541" x2="918.221" y2="352.541" gradientUnits="userSpaceOnUse">
<stop offset="0.16" stop-color="#6BBF47"/>
<stop offset="0.38" stop-color="#79B461"/>
<stop offset="0.47" stop-color="#75AC64"/>
<stop offset="0.7" stop-color="#659E5A"/>
<stop offset="0.9" stop-color="#3E863D"/>
</linearGradient>
</defs>
</svg>
