<svg width="385" height="291" viewBox="0 0 385 291" fill="none" xmlns="http://www.w3.org/2000/svg">
<path d="M385 145.533C385 123.964 353.061 103.524 304.092 90.8479C315.392 48.6394 310.37 15.0584 288.24 4.30719C283.139 1.7853 277.175 0.590718 270.661 0.590718V15.3902C274.271 15.3902 277.175 15.9875 279.608 17.1158C290.28 22.2923 294.91 42.0028 291.3 67.3545C290.437 73.5929 289.025 80.1631 287.298 86.866C271.917 83.6804 255.123 81.2249 237.466 79.6321C226.872 67.3545 215.886 56.2051 204.821 46.4493C230.404 26.3406 254.417 15.3239 270.74 15.3239V0.524353C249.159 0.524353 220.908 13.532 192.343 36.0963C163.778 13.6647 135.527 0.789816 113.946 0.789816V15.5893C130.191 15.5893 154.283 26.5397 179.865 46.5157C168.879 56.2715 157.892 67.3545 147.455 79.6321C129.72 81.2249 112.926 83.6804 97.5448 86.9324C95.7399 80.2958 94.4058 73.8583 93.4641 67.6863C89.7758 42.3347 94.3274 22.6241 104.922 17.3812C107.276 16.1866 110.336 15.6557 113.946 15.6557V0.856181C107.354 0.856181 101.39 2.05076 96.2108 4.57265C74.1592 15.3239 69.2152 48.8385 80.5942 90.9143C31.7825 103.656 0 124.031 0 145.533C0 167.102 31.9395 187.543 80.9081 200.218C69.6076 242.427 74.63 276.008 96.7601 286.759C101.861 289.281 107.825 290.476 114.417 290.476C135.998 290.476 164.249 277.468 192.814 254.904C221.379 277.335 249.63 290.21 271.211 290.21C277.803 290.21 283.767 289.016 288.946 286.494C310.998 275.742 315.942 242.228 304.563 200.152C353.217 187.476 385 167.036 385 145.533V145.533ZM282.825 101.267C279.922 109.828 276.312 118.655 272.231 127.482C269.013 122.172 265.639 116.863 261.951 111.554C258.341 106.245 254.496 101.068 250.65 96.0244C261.794 97.4181 272.545 99.1436 282.825 101.267ZM246.883 171.947C240.762 180.906 234.484 189.401 227.971 197.298C216.278 198.161 204.428 198.626 192.5 198.626C180.65 198.626 168.8 198.161 157.186 197.365C150.673 189.467 144.316 181.039 138.195 172.146C132.231 163.452 126.816 154.625 121.872 145.732C126.738 136.839 132.231 127.946 138.117 119.252C144.238 110.293 150.516 101.798 157.029 93.9007C168.722 93.038 180.572 92.5734 192.5 92.5734C204.35 92.5734 216.2 93.038 227.814 93.8344C234.327 101.732 240.684 110.16 246.805 119.053C252.769 127.747 258.184 136.574 263.128 145.467C258.184 154.36 252.769 163.253 246.883 171.947ZM272.231 163.319C276.469 172.212 280.078 181.105 283.061 189.733C272.78 191.856 261.951 193.648 250.729 195.042C254.574 189.932 258.419 184.689 262.029 179.313C265.639 174.004 269.013 168.628 272.231 163.319ZM192.657 234.131C185.359 227.76 178.061 220.659 170.841 212.894C177.904 213.16 185.123 213.359 192.422 213.359C199.798 213.359 207.096 213.226 214.238 212.894C207.175 220.659 199.877 227.76 192.657 234.131ZM134.271 195.042C123.128 193.648 112.377 191.923 102.096 189.799C105 181.238 108.61 172.411 112.691 163.585C115.908 168.894 119.283 174.203 122.971 179.512C126.659 184.822 130.426 189.998 134.271 195.042ZM192.265 56.9351C199.563 63.3062 206.861 70.4073 214.081 78.1721C207.018 77.9066 199.798 77.7075 192.5 77.7075C185.123 77.7075 177.825 77.8403 170.684 78.1721C177.747 70.4073 185.045 63.3062 192.265 56.9351ZM134.193 96.0244C130.348 101.135 126.502 106.377 122.892 111.753C119.283 117.062 115.908 122.372 112.691 127.681C108.453 118.788 104.843 109.895 101.861 101.267C112.141 99.21 122.971 97.4181 134.193 96.0244V96.0244ZM63.1727 179.114C35.3924 169.093 17.4215 155.953 17.4215 145.533C17.4215 135.114 35.3924 121.907 63.1727 111.952C69.9215 109.497 77.2982 107.307 84.9103 105.249C89.3834 118.257 95.2691 131.796 102.567 145.666C95.3475 159.47 89.5404 172.942 85.1458 185.883C77.3767 183.826 70 181.57 63.1727 179.114ZM105.392 273.951C94.7197 268.774 90.0897 249.063 93.6996 223.712C94.5628 217.473 95.9754 210.903 97.7018 204.2C113.083 207.386 129.877 209.841 147.534 211.434C158.128 223.712 169.114 234.861 180.179 244.617C154.596 264.726 130.583 275.742 114.26 275.742C110.729 275.676 107.747 275.079 105.392 273.951V273.951ZM291.536 223.38C295.224 248.732 290.673 268.442 280.078 273.685C277.724 274.88 274.664 275.411 271.054 275.411C254.809 275.411 230.718 264.46 205.135 244.484C216.121 234.729 227.108 223.645 237.545 211.368C255.28 209.775 272.074 207.32 287.455 204.068C289.26 210.771 290.673 217.208 291.536 223.38V223.38ZM321.749 179.114C315 181.57 307.623 183.76 300.011 185.817C295.538 172.809 289.652 159.271 282.354 145.4C289.574 131.596 295.381 118.124 299.776 105.183C307.545 107.24 314.922 109.497 321.827 111.952C349.608 121.973 367.578 135.114 367.578 145.533C367.5 155.953 349.529 169.159 321.749 179.114V179.114Z" fill="#61DAFB"/>
<path d="M192.422 175.862C212.228 175.862 228.285 162.283 228.285 145.533C228.285 128.783 212.228 115.204 192.422 115.204C172.615 115.204 156.558 128.783 156.558 145.533C156.558 162.283 172.615 175.862 192.422 175.862Z" fill="#61DAFB"/>
</svg>
